<?xml version="1.0" encoding="UTF-8"?>
<svg id="Layer_1" xmlns="http://www.w3.org/2000/svg" version="1.1" viewBox="0 0 201 45">
  <!-- Generator: Adobe Illustrator 29.1.0, SVG Export Plug-In . SVG Version: 2.1.0 Build 142)  -->
  <defs>
    <style>
      .st0 {
        fill: #fff;
      }
    </style>
  </defs>
  <path class="st0" d="M140.1,10.2l-9.8,24.2h5.2l1.8-4.5h11.9l1.8,4.5h5.3l-9.8-24.2h-6.3ZM138.9,25.7l4.2-10.7h.2l4.2,10.7h-8.6ZM61.1,10.1h-5.9l-10.1,11.5v-11.4h-5v24.2h5v-11.8l10.5,11.8h0c0-.1,6.3-.1,6.3-.1l-11.2-12.5,10.4-11.7ZM75.5,22.7h-.2l-6.9-12.6h-5.4l10,17.5-.2.4c-.3.6-.6,1.2-1,1.5-.4.3-.8.5-1.3.8s-.8.3-1.6.3-1.5,0-2.2-.3v4.2c.4.2.8.3,1.2.3h1.5c1.3,0,2.5-.2,3.5-.7,1-.4,1.9-1.1,2.7-2.1.8-1,1.6-2.3,2.4-4l8.6-17.9h-5.2l-5.9,12.6ZM173.3,10.1l-5.9,12.6h-.2l-6.9-12.6h-5.4l10,17.5-.2.4c-.3.6-.6,1.1-1,1.5-.4.3-.8.5-1.3.8s-.8.3-1.6.3-1.5,0-2.2-.3v4.2c.4.2.8.3,1.2.3h1.5c1.3,0,2.5-.2,3.5-.7,1-.4,1.9-1.1,2.7-2.1s1.6-2.3,2.4-4l8.6-17.9h-5.2ZM105.3,20c-1.4-.6-3.2-.9-5.3-.9h-6.1v-4.7h13.5v-4.2h-18.5v24.2h11c3.2,0,5.5-.6,7.2-1.9,1.7-1.3,2.5-3.2,2.5-5.7s-.4-3.1-1.1-4.2c-.7-1.2-1.8-2-3.2-2.6ZM103.1,29.4c-.7.6-1.9.9-3.4.9h-5.8v-7h5.8c1.6,0,2.7.3,3.5.9.7.6,1.1,1.4,1.1,2.6s-.4,2-1.2,2.6ZM132.3,10.2h-18.3v24.2h5V14.5h13.3v-4.3ZM4.4,16.3l.3-.3,11.6-11.6L11.6,0,3.3,8.3c-3.9,3.9-4.3,10.1-1,14.4-.3-2.3.5-4.6,2.1-6.4ZM5.8,26.5l2.2,2.2c-.4-2.5.5-4.9,2.2-6.7h0c0,0,11.3-11.4,11.3-11.4-.5-.8-1-1.6-1.7-2.3h0c0,.1-2.6-2.5-2.6-2.5l-11.5,11.5c-2.5,2.5-2.5,6.6,0,9.2ZM0,33.5v6.9c3.3,0,8.9.8,11.5,4.6,3.1-3.6,7.2-4.6,11.6-4.6v-6.9c-4.1,0-8.3,1.1-11.6,3.5-3.3-2.4-7.4-3.4-11.5-3.5ZM11.6,23.1c-2.5,2.5-2.5,6.6,0,9.2l8.3-8.3c3.2-3.2,4-7.8,2.5-11.7l-10.8,10.8Z"/>
</svg>